<svg version="1.1" id="Layer_1" xmlns="http://www.w3.org/2000/svg" xmlns:xlink="http://www.w3.org/1999/xlink" x="0px" y="0px"
	 width="100%" viewBox="0 0 611 165" enable-background="new 0 0 611 165" xml:space="preserve">
<path fill="#FFFFFF" opacity="1.000000" stroke="none" 
	d="
M216.000000,166.000000 
	C150.312439,166.000000 84.624878,166.000000 18.597828,165.654907 
	C23.598207,164.183014 28.046600,160.988113 28.715088,155.857635 
	C29.685938,148.406631 28.964037,140.735062 28.964037,133.349228 
	C26.298967,133.349228 24.241241,133.349228 21.998987,133.349228 
	C21.998987,139.661667 22.314425,145.650742 21.878662,151.584641 
	C21.624222,155.049408 20.465202,158.543045 15.840848,159.039825 
	C11.682535,159.486572 9.258015,157.206345 8.153178,153.854416 
	C7.207490,150.985321 7.077752,147.761108 7.066108,144.692139 
	C7.051610,140.871017 7.528940,137.048019 7.809536,133.000000 
	C5.285611,133.000000 3.142805,133.000000 1.000000,133.000000 
	C1.000000,129.307098 1.000000,125.614182 1.468611,121.460556 
	C8.857275,120.999840 15.777328,120.999840 23.118279,120.999840 
	C23.118279,101.135918 23.118279,81.825027 23.118279,62.281773 
	C23.822248,62.635635 24.175234,62.699986 24.338078,62.911045 
	C36.230667,78.325005 48.363346,93.562759 59.902149,109.237648 
	C68.372536,120.744232 68.024948,121.006927 82.549789,120.992401 
	C84.706802,120.990250 86.863708,120.888794 89.279388,120.871414 
	C89.639801,120.613640 89.741501,120.317734 89.919586,119.557312 
	C89.946167,87.055878 89.896378,55.018951 89.881012,22.721298 
	C89.618050,22.361294 89.320663,22.262024 88.558159,22.090542 
	C81.167747,22.018330 74.242470,22.018330 66.879959,22.018330 
	C66.879959,41.523560 66.879959,60.509052 66.879959,80.852074 
	C64.710411,78.026794 63.363266,76.276901 62.020721,74.523491 
	C49.692947,58.423008 37.465191,42.243767 24.918777,26.315516 
	C23.268160,24.219982 20.095495,22.500576 17.442383,22.189850 
	C12.028438,21.555784 6.488209,21.999975 1.000000,22.000000 
	C1.000000,15.009492 1.000000,8.018984 1.000000,1.000000 
	C101.354225,1.000000 201.708450,1.000000 302.621643,1.345249 
	C310.087738,12.259997 316.967743,22.847357 323.909180,33.394257 
	C331.636780,45.135677 339.392334,56.858974 347.203217,68.545052 
	C348.762756,70.878349 348.432953,72.560944 346.776794,74.852898 
	C340.702393,83.259285 334.901093,91.864731 329.073517,100.447220 
	C324.586456,107.055519 320.214233,113.741768 315.387878,120.999474 
	C322.023102,120.999474 327.775635,120.321358 333.293091,121.170586 
	C340.239624,122.239761 343.848389,118.829720 346.853790,113.591492 
	C348.618134,110.516266 350.273773,107.362892 352.253662,104.430603 
	C355.639160,99.416481 359.240906,94.548386 362.924164,89.376984 
	C379.615051,114.443024 395.812042,138.797379 412.090759,163.096970 
	C412.697723,164.002991 414.090485,164.895844 415.133331,164.915115 
	C423.223480,165.064606 431.317688,164.997620 440.009705,164.997620 
	C418.848938,133.271225 398.039581,102.071709 377.134521,70.728729 
	C387.853577,54.968620 398.710144,39.006371 410.274261,22.003788 
	C400.836823,22.003788 392.910889,21.932510 384.989655,22.092766 
	C383.983948,22.113113 382.662170,23.124683 382.062744,24.050064 
	C375.864868,33.618347 369.785431,43.263329 363.342255,53.407761 
	C352.009949,35.595482 341.004974,18.297737 330.000000,0.999996 
	C424.000000,1.000000 518.000000,1.000000 612.000000,1.000000 
	C612.000000,7.748158 612.000000,14.405167 611.531372,21.530937 
	C584.468323,21.999699 557.873901,21.999699 531.315430,21.999699 
	C531.315430,29.314627 531.315430,36.046154 531.315430,43.045685 
	C547.883118,43.045685 564.136292,43.045685 581.339661,43.045685 
	C578.001831,46.803162 575.164734,49.882431 572.453674,53.068920 
	C561.307251,66.170181 550.710510,79.788429 538.899353,92.257622 
	C530.870789,100.733475 528.184937,109.721588 530.655090,121.000000 
	C557.729126,121.000000 584.864563,121.000000 612.000000,121.000000 
	C612.000000,135.985046 612.000000,150.970078 612.000000,166.000000 
	C480.979095,166.000000 349.958221,166.000000 218.619507,165.627563 
	C222.941162,164.927765 228.398575,164.780609 228.816284,158.859528 
	C229.386688,150.773956 230.389236,148.641510 220.265656,145.953629 
	C218.568237,145.502975 216.849945,144.870636 215.365448,143.957764 
	C214.094604,143.176285 213.144989,141.872437 212.053299,140.799622 
	C213.806381,139.891449 215.525406,138.352219 217.322266,138.255219 
	C219.067276,138.161026 220.871719,140.060486 222.687943,140.132782 
	C224.387436,140.200439 226.136612,139.020126 227.863922,138.389023 
	C227.037674,136.923233 226.509033,134.549194 225.329178,134.162582 
	C221.843994,133.020584 218.121262,132.287888 214.454422,132.093246 
	C209.528244,131.831787 205.405029,135.624512 205.000656,140.087524 
	C204.508072,145.524185 207.510666,149.765060 212.651672,151.008224 
	C215.149216,151.612152 217.738281,152.080719 220.037674,153.146255 
	C221.013168,153.598282 221.978012,155.536163 221.791931,156.595779 
	C221.625839,157.541611 219.795898,158.953171 218.826340,158.859085 
	C215.816605,158.566986 212.753952,157.955963 209.929291,156.891602 
	C207.627151,156.024109 205.590591,155.200928 205.081238,158.342819 
	C204.854492,159.741608 205.669678,162.189758 206.746017,162.749100 
	C209.618149,164.241714 212.888138,164.968704 216.000000,166.000000 
M290.151947,133.426254 
	C290.102356,143.279816 290.035126,153.133408 290.045349,162.986908 
	C290.045990,163.603119 290.653107,164.218719 291.908142,164.979630 
	C298.733215,164.985626 305.562134,165.109528 312.379883,164.888870 
	C313.605652,164.849182 315.637604,163.502853 315.763855,162.555481 
	C315.910950,161.451492 314.631714,159.703903 313.497253,159.003326 
	C312.223724,158.216858 310.427734,158.085709 308.845947,158.027863 
	C305.269501,157.897079 301.684998,157.986740 298.203552,157.986740 
	C298.203552,155.653259 298.203552,154.037735 298.203552,151.990753 
	C303.140137,151.990753 307.895142,151.990753 312.771973,151.990753 
	C312.771973,149.488480 312.771973,147.424683 312.771973,144.929108 
	C307.809479,144.929108 303.054932,144.929108 298.274109,144.929108 
	C298.274109,142.762543 298.274109,141.035187 298.274109,138.877502 
	C303.953735,138.877502 309.371307,138.877502 315.042511,138.877502 
	C314.940552,136.692276 314.859802,134.961548 314.776001,133.165421 
	C306.577728,133.165421 298.777985,133.165421 290.151947,133.426254 
M221.385605,120.803932 
	C229.147064,120.803932 236.908524,120.803932 245.116302,120.803932 
	C245.116302,110.409927 245.116302,100.343193 245.116302,89.999825 
	C248.203888,89.999825 250.842453,90.049057 253.478531,89.988846 
	C257.989838,89.885811 261.510651,91.084732 264.037476,95.398972 
	C268.510437,103.035950 273.438660,110.413132 278.373505,117.766747 
	C279.308105,119.159447 281.126892,120.803925 282.590698,120.856491 
	C290.854126,121.153236 299.133789,120.999832 308.186401,120.999832 
	C300.142578,109.172585 292.471588,97.893570 284.895905,86.754692 
	C285.564362,86.007454 285.740173,85.624634 286.014984,85.530281 
	C303.613281,79.489044 307.348389,61.151154 304.519226,47.299713 
	C301.407501,32.064762 288.981293,22.498907 273.437469,22.110420 
	C256.302338,21.682165 239.145798,22.111765 221.172333,22.427807 
	C221.166931,54.939430 221.161545,87.451057 221.385605,120.803932 
M478.887573,21.368746 
	C472.244415,21.245737 465.562164,20.612797 458.967194,21.118378 
	C448.893066,21.890686 439.771332,25.659584 432.127686,32.405277 
	C419.055481,43.941753 412.758392,58.267635 413.920746,75.927711 
	C414.774475,88.898537 419.838318,100.023232 428.708862,108.972298 
	C443.162598,123.554062 461.548889,126.027054 480.523651,121.764244 
	C500.045898,117.378433 513.514099,104.950768 517.827515,85.061752 
	C521.375427,68.702316 520.481689,52.288010 508.340851,39.009953 
	C500.603607,30.547943 491.511902,23.646877 478.887573,21.368746 
M161.229553,20.998888 
	C156.734589,20.999132 152.233765,20.873049 147.748444,21.081137 
	C146.498566,21.139124 144.656540,21.868742 144.178467,22.832228 
	C141.957092,27.309069 140.102982,31.969309 138.147095,36.576500 
	C128.762253,58.682800 119.369637,80.785828 110.020065,102.907043 
	C107.550697,108.749588 105.224663,114.652710 102.687820,120.884171 
	C111.091675,120.884171 118.730148,120.884171 126.266251,120.884171 
	C128.862152,114.892097 131.280273,108.943039 134.059158,103.167564 
	C134.711990,101.810753 136.567139,100.161354 137.896698,100.136795 
	C150.370300,99.906342 162.849884,100.000015 175.348633,100.000015 
	C177.857056,105.901276 180.609207,111.555313 182.616577,117.462440 
	C183.548309,120.204292 184.628174,121.113846 187.386642,121.049698 
	C194.039490,120.894997 200.698349,120.999527 208.147720,120.999527 
	C204.735123,112.620003 201.588547,104.568748 198.195404,96.622787 
	C187.936111,72.597816 177.465179,48.662048 167.412674,24.551447 
	C166.178726,21.591896 164.944733,20.665041 161.229553,20.998888 
M67.999634,160.319016 
	C67.999634,151.242523 67.999634,142.166046 67.999634,133.207809 
	C65.325806,133.207809 63.377254,133.207809 60.960869,133.207809 
	C60.960869,139.090744 60.960869,144.787460 60.960869,150.484177 
	C57.322918,147.250748 54.782581,143.559662 52.006416,140.055374 
	C48.804897,136.014175 45.920818,131.124802 39.239571,133.424683 
	C39.239571,143.859222 39.239571,154.265320 39.239571,164.730927 
	C41.558838,164.730927 43.619808,164.730927 46.158875,164.730927 
	C46.158875,158.137573 46.158875,151.797729 46.158875,144.321823 
	C49.935890,149.254883 52.650837,153.538406 56.108765,157.100739 
	C59.293976,160.382111 60.582451,167.064545 67.833092,164.587341 
	C67.885223,163.546936 67.942390,162.406067 67.999634,160.319016 
M170.000458,147.503601 
	C170.000458,153.278656 170.000458,159.053711 170.000458,164.710999 
	C181.302582,166.802811 174.960510,157.498291 177.540237,154.236954 
	C180.861008,153.387894 182.755981,154.300735 184.444183,157.609619 
	C186.836975,162.299515 189.688644,167.553619 197.480576,164.158859 
	C194.906967,160.386597 192.303772,156.570969 189.456268,152.397263 
	C195.429382,151.143478 197.026611,146.842255 196.704636,142.721039 
	C196.381943,138.590500 195.054901,133.508392 189.493393,133.118179 
	C183.106186,132.670013 176.663376,133.014191 170.000458,133.014191 
	C170.000458,137.906830 170.000458,142.207199 170.000458,147.503601 
M144.532379,133.000961 
	C141.433502,133.000961 138.334625,133.000961 135.307159,133.000961 
	C135.307159,143.988388 135.307159,154.369843 135.307159,164.716690 
	C143.692703,164.716690 151.768478,164.716690 159.823914,164.716690 
	C160.133942,158.146057 160.039124,158.036270 153.744186,158.003693 
	C149.956757,157.984100 146.169159,158.000092 142.232269,158.000092 
	C142.232269,155.833542 142.232269,154.106979 142.232269,151.954269 
	C147.528137,151.954269 152.610214,151.954269 157.781708,151.954269 
	C157.781708,149.455765 157.781708,147.389664 157.781708,144.922394 
	C152.494064,144.922394 147.408417,144.922394 142.259293,144.922394 
	C142.259293,142.785629 142.259293,141.059525 142.259293,138.902512 
	C148.252975,138.902512 153.997681,138.902512 159.706329,138.902512 
	C159.706329,136.725723 159.706329,134.997299 159.706329,133.000961 
	C154.785049,133.000961 150.152267,133.000961 144.532379,133.000961 
M111.469131,164.998871 
	C112.622528,164.677078 114.534470,164.668076 114.815491,163.986572 
	C118.999084,153.841171 122.966942,143.606796 126.943855,133.499924 
	C121.459755,131.689270 118.457138,133.337097 116.932114,138.744720 
	C115.467743,143.937317 113.147774,148.888626 110.938385,154.636414 
	C107.821899,146.843475 105.103203,140.045212 102.394234,133.271271 
	C100.003387,133.271271 97.581116,133.271271 95.158592,133.271271 
	C95.094032,134.035141 94.870445,134.604675 95.036842,135.016739 
	C98.782066,144.291351 102.471519,153.591736 106.476074,162.754166 
	C106.971428,163.887512 109.187073,164.268982 111.469131,164.998871 
M265.000854,159.380890 
	C265.000854,161.159882 265.000854,162.938889 265.000854,164.704773 
	C267.610077,164.704773 269.673157,164.704773 272.181488,164.704773 
	C272.181488,156.008621 272.181488,147.597610 272.181488,138.770065 
	C275.724762,138.770065 278.809509,138.770065 281.818909,138.770065 
	C281.818909,136.708313 281.818909,135.084717 281.818909,133.232513 
	C272.894836,133.232513 264.149475,133.232513 255.223587,133.232513 
	C255.223587,135.164047 255.223587,136.895935 255.223587,139.071625 
	C258.507507,139.071625 261.594635,139.071625 265.000854,139.071625 
	C265.000854,145.809677 265.000854,152.109222 265.000854,159.380890 
M342.405396,133.000305 
	C335.644104,133.000305 328.882812,133.000305 322.210266,133.000305 
	C320.730194,142.867905 328.940765,137.029221 332.196594,140.033813 
	C332.196594,148.043518 332.196594,156.431030 332.196594,164.667679 
	C334.676514,164.667679 336.732635,164.667679 339.204407,164.667679 
	C339.204407,155.960297 339.204407,147.578430 339.204407,138.791138 
	C342.704987,138.791138 345.779541,138.791138 349.057770,138.791138 
	C348.945068,136.627014 348.855133,134.900009 348.756195,133.000305 
	C346.663605,133.000305 345.018524,133.000305 342.405396,133.000305 
M365.000336,140.569305 
	C365.000336,138.133041 365.000336,135.696793 365.000336,133.298584 
	C362.375977,133.298584 360.319275,133.298584 358.279724,133.298584 
	C358.279724,143.979599 358.279724,154.360153 358.279724,164.698639 
	C360.628204,164.698639 362.681000,164.698639 365.000336,164.698639 
	C365.000336,156.783875 365.000336,149.167191 365.000336,140.569305 
M86.000008,138.619141 
	C86.000008,136.844498 86.000008,135.069839 86.000008,133.282791 
	C83.408638,133.282791 81.350838,133.282791 79.267029,133.282791 
	C79.267029,143.948364 79.267029,154.329666 79.267029,164.712616 
	C81.598984,164.712616 83.657013,164.712616 86.000008,164.712616 
	C86.000008,156.149704 86.000008,147.870590 86.000008,138.619141 
M246.000214,139.588226 
	C246.000214,137.483276 246.000214,135.378326 246.000214,133.292755 
	C243.394653,133.292755 241.337952,133.292755 239.274414,133.292755 
	C239.274414,143.967484 239.274414,154.347885 239.274414,164.704498 
	C241.610779,164.704498 243.667542,164.704498 246.000214,164.704498 
	C246.000214,156.464996 246.000214,148.517456 246.000214,139.588226 
M239.787399,125.090607 
	C239.453995,126.896965 239.120605,128.703323 238.737411,130.779510 
	C241.832336,130.779510 244.230652,130.779510 246.780548,130.779510 
	C246.780548,128.829269 246.780548,127.099846 246.780548,125.011024 
	C244.615372,125.011024 242.664001,125.011024 239.787399,125.090607 
M79.001350,127.546890 
	C78.955894,134.096497 83.371010,129.848770 86.057625,131.003738 
	C85.948257,128.619888 85.868858,126.889046 85.742012,124.124077 
	C83.052422,125.126778 81.031868,125.880058 79.001350,127.546890 
z"/>
<path fill="#C80733" opacity="1.000000" stroke="none" 
	d="
M329.531342,0.999996 
	C341.004974,18.297737 352.009949,35.595482 363.342255,53.407761 
	C369.785431,43.263329 375.864868,33.618347 382.062744,24.050064 
	C382.662170,23.124683 383.983948,22.113113 384.989655,22.092766 
	C392.910889,21.932510 400.836823,22.003788 410.274261,22.003788 
	C398.710144,39.006371 387.853577,54.968620 377.134521,70.728729 
	C398.039581,102.071709 418.848938,133.271225 440.009705,164.997620 
	C431.317688,164.997620 423.223480,165.064606 415.133331,164.915115 
	C414.090485,164.895844 412.697723,164.002991 412.090759,163.096970 
	C395.812042,138.797379 379.615051,114.443024 362.924164,89.376984 
	C359.240906,94.548386 355.639160,99.416481 352.253662,104.430603 
	C350.273773,107.362892 348.618134,110.516266 346.853790,113.591492 
	C343.848389,118.829720 340.239624,122.239761 333.293091,121.170586 
	C327.775635,120.321358 322.023102,120.999474 315.387878,120.999474 
	C320.214233,113.741768 324.586456,107.055519 329.073517,100.447220 
	C334.901093,91.864731 340.702393,83.259285 346.776794,74.852898 
	C348.432953,72.560944 348.762756,70.878349 347.203217,68.545052 
	C339.392334,56.858974 331.636780,45.135677 323.909180,33.394257 
	C316.967743,22.847357 310.087738,12.259997 303.090302,1.345249 
	C311.687561,1.000000 320.375122,1.000000 329.531342,0.999996 
z"/>
<path fill="#C80733" opacity="1.000000" stroke="none" 
	d="
M1.000000,22.468658 
	C6.488209,21.999975 12.028438,21.555784 17.442383,22.189850 
	C20.095495,22.500576 23.268160,24.219982 24.918777,26.315516 
	C37.465191,42.243767 49.692947,58.423008 62.020721,74.523491 
	C63.363266,76.276901 64.710411,78.026794 66.879959,80.852074 
	C66.879959,60.509052 66.879959,41.523560 66.879959,22.018330 
	C74.242470,22.018330 81.167747,22.018330 88.649094,22.268957 
	C89.369743,22.742002 89.583557,22.896151 89.846588,22.982031 
	C89.896378,55.018951 89.946167,87.055878 89.741653,119.646530 
	C89.266029,120.362793 89.110474,120.573799 89.020668,120.833282 
	C86.863708,120.888794 84.706802,120.990250 82.549789,120.992401 
	C68.024948,121.006927 68.372536,120.744232 59.902149,109.237648 
	C48.363346,93.562759 36.230667,78.325005 24.338078,62.911045 
	C24.175234,62.699986 23.822248,62.635635 23.118279,62.281773 
	C23.118279,81.825027 23.118279,101.135918 23.118279,120.999840 
	C15.777328,120.999840 8.857275,120.999840 1.468611,120.999924 
	C1.000000,88.312439 1.000000,55.624878 1.000000,22.468658 
z"/>
<path fill="#C80733" opacity="1.000000" stroke="none" 
	d="
M612.000000,120.531601 
	C584.864563,121.000000 557.729126,121.000000 530.655090,121.000000 
	C528.184937,109.721588 530.870789,100.733475 538.899353,92.257622 
	C550.710510,79.788429 561.307251,66.170181 572.453674,53.068920 
	C575.164734,49.882431 578.001831,46.803162 581.339661,43.045685 
	C564.136292,43.045685 547.883118,43.045685 531.315430,43.045685 
	C531.315430,36.046154 531.315430,29.314627 531.315430,21.999699 
	C557.873901,21.999699 584.468323,21.999699 611.531372,21.999849 
	C612.000000,27.688040 612.000000,33.376080 611.665527,39.634262 
	C605.359802,47.504265 599.491638,54.891674 593.392090,62.082783 
	C584.935303,72.053123 576.281738,81.856422 567.762939,91.774628 
	C565.394287,94.532402 563.204102,97.443481 560.359558,101.000000 
	C578.225220,101.000000 595.112610,101.000000 612.000000,101.000000 
	C612.000000,107.354401 612.000000,113.708794 612.000000,120.531601 
z"/>
<path fill="#FFFFFF" opacity="1.000000" stroke="none" 
	d="
M612.000000,100.531342 
	C595.112610,101.000000 578.225220,101.000000 560.359558,101.000000 
	C563.204102,97.443481 565.394287,94.532402 567.762939,91.774628 
	C576.281738,81.856422 584.935303,72.053123 593.392090,62.082783 
	C599.491638,54.891674 605.359802,47.504265 611.665527,40.102200 
	C612.000000,60.020893 612.000000,80.041786 612.000000,100.531342 
z"/>
<path fill="#C70732" opacity="1.000000" stroke="none" 
	d="
M216.333328,166.000000 
	C212.888138,164.968704 209.618149,164.241714 206.746017,162.749100 
	C205.669678,162.189758 204.854492,159.741608 205.081238,158.342819 
	C205.590591,155.200928 207.627151,156.024109 209.929291,156.891602 
	C212.753952,157.955963 215.816605,158.566986 218.826340,158.859085 
	C219.795898,158.953171 221.625839,157.541611 221.791931,156.595779 
	C221.978012,155.536163 221.013168,153.598282 220.037674,153.146255 
	C217.738281,152.080719 215.149216,151.612152 212.651672,151.008224 
	C207.510666,149.765060 204.508072,145.524185 205.000656,140.087524 
	C205.405029,135.624512 209.528244,131.831787 214.454422,132.093246 
	C218.121262,132.287888 221.843994,133.020584 225.329178,134.162582 
	C226.509033,134.549194 227.037674,136.923233 227.863922,138.389023 
	C226.136612,139.020126 224.387436,140.200439 222.687943,140.132782 
	C220.871719,140.060486 219.067276,138.161026 217.322266,138.255219 
	C215.525406,138.352219 213.806381,139.891449 212.053299,140.799622 
	C213.144989,141.872437 214.094604,143.176285 215.365448,143.957764 
	C216.849945,144.870636 218.568237,145.502975 220.265656,145.953629 
	C230.389236,148.641510 229.386688,150.773956 228.816284,158.859528 
	C228.398575,164.780609 222.941162,164.927765 218.150848,165.627563 
	C217.555557,166.000000 217.111099,166.000000 216.333328,166.000000 
z"/>
<path fill="#C70732" opacity="1.000000" stroke="none" 
	d="
M1.000000,133.468628 
	C3.142805,133.000000 5.285611,133.000000 7.809536,133.000000 
	C7.528940,137.048019 7.051610,140.871017 7.066108,144.692139 
	C7.077752,147.761108 7.207490,150.985321 8.153178,153.854416 
	C9.258015,157.206345 11.682535,159.486572 15.840848,159.039825 
	C20.465202,158.543045 21.624222,155.049408 21.878662,151.584641 
	C22.314425,145.650742 21.998987,139.661667 21.998987,133.349228 
	C24.241241,133.349228 26.298967,133.349228 28.964037,133.349228 
	C28.964037,140.735062 29.685938,148.406631 28.715088,155.857635 
	C28.046600,160.988113 23.598207,164.183014 18.129169,165.654907 
	C16.285641,166.000000 14.571283,166.000000 12.297203,165.646591 
	C6.290314,164.947372 3.491725,161.172333 1.000000,157.000000 
	C1.000000,149.312424 1.000000,141.624832 1.000000,133.468628 
z"/>
<path fill="#FFFFFF" opacity="1.000000" stroke="none" 
	d="
M1.000000,157.491058 
	C3.491725,161.172333 6.290314,164.947372 11.868741,165.646591 
	C8.423985,166.000000 4.847970,166.000000 1.000000,166.000000 
	C1.000000,163.330582 1.000000,160.656342 1.000000,157.491058 
z"/>
<path fill="#C80733" opacity="1.000000" stroke="none" 
	d="
M479.228912,21.641647 
	C491.511902,23.646877 500.603607,30.547943 508.340851,39.009953 
	C520.481689,52.288010 521.375427,68.702316 517.827515,85.061752 
	C513.514099,104.950768 500.045898,117.378433 480.523651,121.764244 
	C461.548889,126.027054 443.162598,123.554062 428.708862,108.972298 
	C419.838318,100.023232 414.774475,88.898537 413.920746,75.927711 
	C412.758392,58.267635 419.055481,43.941753 432.127686,32.405277 
	C439.771332,25.659584 448.893066,21.890686 458.967194,21.118378 
	C465.562164,20.612797 472.244415,21.245737 479.228912,21.641647 
M472.813629,42.322849 
	C461.285309,40.566589 451.344025,43.575859 444.086090,52.919914 
	C435.344513,64.174004 435.464325,84.077156 448.124573,94.960213 
	C456.911133,102.513283 471.259003,104.425171 481.164581,98.243744 
	C494.812927,89.726707 499.969238,73.068123 492.193298,57.843166 
	C488.346100,50.310547 482.518707,44.353210 472.813629,42.322849 
z"/>
<path fill="#C80733" opacity="1.000000" stroke="none" 
	d="
M221.998596,22.167675 
	C239.145798,22.111765 256.302338,21.682165 273.437469,22.110420 
	C288.981293,22.498907 301.407501,32.064762 304.519226,47.299713 
	C307.348389,61.151154 303.613281,79.489044 286.014984,85.530281 
	C285.740173,85.624634 285.564362,86.007454 284.895905,86.754692 
	C292.471588,97.893570 300.142578,109.172585 308.186401,120.999832 
	C299.133789,120.999832 290.854126,121.153236 282.590698,120.856491 
	C281.126892,120.803925 279.308105,119.159447 278.373505,117.766747 
	C273.438660,110.413132 268.510437,103.035950 264.037476,95.398972 
	C261.510651,91.084732 257.989838,89.885811 253.478531,89.988846 
	C250.842453,90.049057 248.203888,89.999825 245.116302,89.999825 
	C245.116302,100.343193 245.116302,110.409927 245.116302,120.803932 
	C236.908524,120.803932 229.147064,120.803932 221.536316,120.068771 
	C221.791336,117.520027 221.985535,115.706490 221.986603,113.892838 
	C222.004868,83.317787 221.999069,52.742733 221.998596,22.167675 
M263.363983,43.000412 
	C257.281342,43.000412 251.198700,43.000412 245.386154,43.000412 
	C245.386154,52.459217 245.386154,61.188358 245.386154,69.997673 
	C252.764847,69.997673 259.758514,70.057945 266.749634,69.951630 
	C268.326843,69.927643 269.903748,69.358475 271.466278,68.980255 
	C279.938934,66.929367 284.118469,58.359859 280.931183,51.321053 
	C277.719299,44.227993 271.255920,42.992252 263.363983,43.000412 
z"/>
<path fill="#C80733" opacity="1.000000" stroke="none" 
	d="
M161.691177,20.998901 
	C164.944733,20.665041 166.178726,21.591896 167.412674,24.551447 
	C177.465179,48.662048 187.936111,72.597816 198.195404,96.622787 
	C201.588547,104.568748 204.735123,112.620003 208.147720,120.999527 
	C200.698349,120.999527 194.039490,120.894997 187.386642,121.049698 
	C184.628174,121.113846 183.548309,120.204292 182.616577,117.462440 
	C180.609207,111.555313 177.857056,105.901276 175.348633,100.000015 
	C162.849884,100.000015 150.370300,99.906342 137.896698,100.136795 
	C136.567139,100.161354 134.711990,101.810753 134.059158,103.167564 
	C131.280273,108.943039 128.862152,114.892097 126.266251,120.884171 
	C118.730148,120.884171 111.091675,120.884171 102.687820,120.884171 
	C105.224663,114.652710 107.550697,108.749588 110.020065,102.907043 
	C119.369637,80.785828 128.762253,58.682800 138.147095,36.576500 
	C140.102982,31.969309 141.957092,27.309069 144.178467,22.832228 
	C144.656540,21.868742 146.498566,21.139124 147.748444,21.081137 
	C152.233765,20.873049 156.734589,20.999132 161.691177,20.998901 
M161.942673,65.714081 
	C159.744446,61.052757 157.546234,56.391430 155.006104,51.005085 
	C150.958450,60.941219 147.393616,69.692146 143.678406,78.812202 
	C151.682297,78.812202 159.080170,78.812202 166.815643,78.812202 
	C165.162628,74.587479 163.581360,70.546127 161.942673,65.714081 
z"/>
<path fill="#C80732" opacity="1.000000" stroke="none" 
	d="
M67.999596,160.792114 
	C67.942390,162.406067 67.885223,163.546936 67.833092,164.587341 
	C60.582451,167.064545 59.293976,160.382111 56.108765,157.100739 
	C52.650837,153.538406 49.935890,149.254883 46.158875,144.321823 
	C46.158875,151.797729 46.158875,158.137573 46.158875,164.730927 
	C43.619808,164.730927 41.558838,164.730927 39.239571,164.730927 
	C39.239571,154.265320 39.239571,143.859222 39.239571,133.424683 
	C45.920818,131.124802 48.804897,136.014175 52.006416,140.055374 
	C54.782581,143.559662 57.322918,147.250748 60.960869,150.484177 
	C60.960869,144.787460 60.960869,139.090744 60.960869,133.207809 
	C63.377254,133.207809 65.325806,133.207809 67.999634,133.207809 
	C67.999634,142.166046 67.999634,151.242523 67.999596,160.792114 
z"/>
<path fill="#C80732" opacity="1.000000" stroke="none" 
	d="
M170.000458,147.005585 
	C170.000458,142.207199 170.000458,137.906830 170.000458,133.014191 
	C176.663376,133.014191 183.106186,132.670013 189.493393,133.118179 
	C195.054901,133.508392 196.381943,138.590500 196.704636,142.721039 
	C197.026611,146.842255 195.429382,151.143478 189.456268,152.397263 
	C192.303772,156.570969 194.906967,160.386597 197.480576,164.158859 
	C189.688644,167.553619 186.836975,162.299515 184.444183,157.609619 
	C182.755981,154.300735 180.861008,153.387894 177.540237,154.236954 
	C174.960510,157.498291 181.302582,166.802811 170.000458,164.710999 
	C170.000458,159.053711 170.000458,153.278656 170.000458,147.005585 
M184.050415,147.997147 
	C187.645981,147.484146 190.442749,145.465485 188.772736,141.879150 
	C186.224945,136.407791 181.115005,140.029968 177.363190,138.912766 
	C177.363190,142.479950 177.363190,145.195953 177.363190,148.000259 
	C179.536606,148.000259 181.347183,148.000259 184.050415,147.997147 
z"/>
<path fill="#C80733" opacity="1.000000" stroke="none" 
	d="
M145.025925,133.000961 
	C150.152267,133.000961 154.785049,133.000961 159.706329,133.000961 
	C159.706329,134.997299 159.706329,136.725723 159.706329,138.902512 
	C153.997681,138.902512 148.252975,138.902512 142.259293,138.902512 
	C142.259293,141.059525 142.259293,142.785629 142.259293,144.922394 
	C147.408417,144.922394 152.494064,144.922394 157.781708,144.922394 
	C157.781708,147.389664 157.781708,149.455765 157.781708,151.954269 
	C152.610214,151.954269 147.528137,151.954269 142.232269,151.954269 
	C142.232269,154.106979 142.232269,155.833542 142.232269,158.000092 
	C146.169159,158.000092 149.956757,157.984100 153.744186,158.003693 
	C160.039124,158.036270 160.133942,158.146057 159.823914,164.716690 
	C151.768478,164.716690 143.692703,164.716690 135.307159,164.716690 
	C135.307159,154.369843 135.307159,143.988388 135.307159,133.000961 
	C138.334625,133.000961 141.433502,133.000961 145.025925,133.000961 
z"/>
<path fill="#C70632" opacity="1.000000" stroke="none" 
	d="
M290.978241,133.165421 
	C298.777985,133.165421 306.577728,133.165421 314.776001,133.165421 
	C314.859802,134.961548 314.940552,136.692276 315.042511,138.877502 
	C309.371307,138.877502 303.953735,138.877502 298.274109,138.877502 
	C298.274109,141.035187 298.274109,142.762543 298.274109,144.929108 
	C303.054932,144.929108 307.809479,144.929108 312.771973,144.929108 
	C312.771973,147.424683 312.771973,149.488480 312.771973,151.990753 
	C307.895142,151.990753 303.140137,151.990753 298.203552,151.990753 
	C298.203552,154.037735 298.203552,155.653259 298.203552,157.986740 
	C301.684998,157.986740 305.269501,157.897079 308.845947,158.027863 
	C310.427734,158.085709 312.223724,158.216858 313.497253,159.003326 
	C314.631714,159.703903 315.910950,161.451492 315.763855,162.555481 
	C315.637604,163.502853 313.605652,164.849182 312.379883,164.888870 
	C305.562134,165.109528 298.733215,164.985626 291.449615,164.449188 
	C290.986786,153.667648 290.982513,143.416534 290.978241,133.165421 
z"/>
<path fill="#C80732" opacity="1.000000" stroke="none" 
	d="
M111.037338,164.998871 
	C109.187073,164.268982 106.971428,163.887512 106.476074,162.754166 
	C102.471519,153.591736 98.782066,144.291351 95.036842,135.016739 
	C94.870445,134.604675 95.094032,134.035141 95.158592,133.271271 
	C97.581116,133.271271 100.003387,133.271271 102.394234,133.271271 
	C105.103203,140.045212 107.821899,146.843475 110.938385,154.636414 
	C113.147774,148.888626 115.467743,143.937317 116.932114,138.744720 
	C118.457138,133.337097 121.459755,131.689270 126.943855,133.499924 
	C122.966942,143.606796 118.999084,153.841171 114.815491,163.986572 
	C114.534470,164.668076 112.622528,164.677078 111.037338,164.998871 
z"/>
<path fill="#C80733" opacity="1.000000" stroke="none" 
	d="
M265.000854,158.894836 
	C265.000854,152.109222 265.000854,145.809677 265.000854,139.071625 
	C261.594635,139.071625 258.507507,139.071625 255.223587,139.071625 
	C255.223587,136.895935 255.223587,135.164047 255.223587,133.232513 
	C264.149475,133.232513 272.894836,133.232513 281.818909,133.232513 
	C281.818909,135.084717 281.818909,136.708313 281.818909,138.770065 
	C278.809509,138.770065 275.724762,138.770065 272.181488,138.770065 
	C272.181488,147.597610 272.181488,156.008621 272.181488,164.704773 
	C269.673157,164.704773 267.610077,164.704773 265.000854,164.704773 
	C265.000854,162.938889 265.000854,161.159882 265.000854,158.894836 
z"/>
<path fill="#C80733" opacity="1.000000" stroke="none" 
	d="
M342.889404,133.000305 
	C345.018524,133.000305 346.663605,133.000305 348.756195,133.000305 
	C348.855133,134.900009 348.945068,136.627014 349.057770,138.791138 
	C345.779541,138.791138 342.704987,138.791138 339.204407,138.791138 
	C339.204407,147.578430 339.204407,155.960297 339.204407,164.667679 
	C336.732635,164.667679 334.676514,164.667679 332.196594,164.667679 
	C332.196594,156.431030 332.196594,148.043518 332.196594,140.033813 
	C328.940765,137.029221 320.730194,142.867905 322.210266,133.000305 
	C328.882812,133.000305 335.644104,133.000305 342.889404,133.000305 
z"/>
<path fill="#C80733" opacity="1.000000" stroke="none" 
	d="
M365.000336,141.059906 
	C365.000336,149.167191 365.000336,156.783875 365.000336,164.698639 
	C362.681000,164.698639 360.628204,164.698639 358.279724,164.698639 
	C358.279724,154.360153 358.279724,143.979599 358.279724,133.298584 
	C360.319275,133.298584 362.375977,133.298584 365.000336,133.298584 
	C365.000336,135.696793 365.000336,138.133041 365.000336,141.059906 
z"/>
<path fill="#C80733" opacity="1.000000" stroke="none" 
	d="
M86.000008,139.105316 
	C86.000008,147.870590 86.000008,156.149704 86.000008,164.712616 
	C83.657013,164.712616 81.598984,164.712616 79.267029,164.712616 
	C79.267029,154.329666 79.267029,143.948364 79.267029,133.282791 
	C81.350838,133.282791 83.408638,133.282791 86.000008,133.282791 
	C86.000008,135.069839 86.000008,136.844498 86.000008,139.105316 
z"/>
<path fill="#C80733" opacity="1.000000" stroke="none" 
	d="
M246.000214,140.079071 
	C246.000214,148.517456 246.000214,156.464996 246.000214,164.704498 
	C243.667542,164.704498 241.610779,164.704498 239.274414,164.704498 
	C239.274414,154.347885 239.274414,143.967484 239.274414,133.292755 
	C241.337952,133.292755 243.394653,133.292755 246.000214,133.292755 
	C246.000214,135.378326 246.000214,137.483276 246.000214,140.079071 
z"/>
<path fill="#B70126" opacity="1.000000" stroke="none" 
	d="
M221.585464,22.297741 
	C221.999069,52.742733 222.004868,83.317787 221.986603,113.892838 
	C221.985535,115.706490 221.791336,117.520027 221.421570,119.648148 
	C221.161545,87.451057 221.166931,54.939430 221.585464,22.297741 
z"/>
<path fill="#C70633" opacity="1.000000" stroke="none" 
	d="
M240.250031,125.050812 
	C242.664001,125.011024 244.615372,125.011024 246.780548,125.011024 
	C246.780548,127.099846 246.780548,128.829269 246.780548,130.779510 
	C244.230652,130.779510 241.832336,130.779510 238.737411,130.779510 
	C239.120605,128.703323 239.453995,126.896965 240.250031,125.050812 
z"/>
<path fill="#C80733" opacity="1.000000" stroke="none" 
	d="
M79.006332,127.090118 
	C81.031868,125.880058 83.052422,125.126778 85.742012,124.124077 
	C85.868858,126.889046 85.948257,128.619888 86.057625,131.003738 
	C83.371010,129.848770 78.955894,134.096497 79.006332,127.090118 
z"/>
<path fill="#9A0101" opacity="1.000000" stroke="none" 
	d="
M290.565094,133.295837 
	C290.982513,143.416534 290.986786,153.667648 290.984589,164.376678 
	C290.653107,164.218719 290.045990,163.603119 290.045349,162.986908 
	C290.035126,153.133408 290.102356,143.279816 290.565094,133.295837 
z"/>
<path fill="#C5012A" opacity="1.000000" stroke="none" 
	d="
M89.279388,120.871414 
	C89.110474,120.573799 89.266029,120.362793 89.665268,120.111046 
	C89.741501,120.317734 89.639801,120.613640 89.279388,120.871414 
z"/>
<path fill="#C5012A" opacity="1.000000" stroke="none" 
	d="
M89.881012,22.721298 
	C89.583557,22.896151 89.369743,22.742002 89.114212,22.341171 
	C89.320663,22.262024 89.618050,22.361294 89.881012,22.721298 
z"/>
<path fill="#FFFFFF" opacity="1.000000" stroke="none" 
	d="
M473.139954,42.612076 
	C482.518707,44.353210 488.346100,50.310547 492.193298,57.843166 
	C499.969238,73.068123 494.812927,89.726707 481.164581,98.243744 
	C471.259003,104.425171 456.911133,102.513283 448.124573,94.960213 
	C435.464325,84.077156 435.344513,64.174004 444.086090,52.919914 
	C451.344025,43.575859 461.285309,40.566589 473.139954,42.612076 
z"/>
<path fill="#FFFFFF" opacity="1.000000" stroke="none" 
	d="
M263.842102,43.000381 
	C271.255920,42.992252 277.719299,44.227993 280.931183,51.321053 
	C284.118469,58.359859 279.938934,66.929367 271.466278,68.980255 
	C269.903748,69.358475 268.326843,69.927643 266.749634,69.951630 
	C259.758514,70.057945 252.764847,69.997673 245.386154,69.997673 
	C245.386154,61.188358 245.386154,52.459217 245.386154,43.000412 
	C251.198700,43.000412 257.281342,43.000412 263.842102,43.000381 
z"/>
<path fill="#FFFFFF" opacity="1.000000" stroke="none" 
	d="
M161.971375,66.109428 
	C163.581360,70.546127 165.162628,74.587479 166.815643,78.812202 
	C159.080170,78.812202 151.682297,78.812202 143.678406,78.812202 
	C147.393616,69.692146 150.958450,60.941219 155.006104,51.005085 
	C157.546234,56.391430 159.744446,61.052757 161.971375,66.109428 
z"/>
<path fill="#FFFFFF" opacity="1.000000" stroke="none" 
	d="
M183.604095,147.998703 
	C181.347183,148.000259 179.536606,148.000259 177.363190,148.000259 
	C177.363190,145.195953 177.363190,142.479950 177.363190,138.912766 
	C181.115005,140.029968 186.224945,136.407791 188.772736,141.879150 
	C190.442749,145.465485 187.645981,147.484146 183.604095,147.998703 
z"/>
</svg>