<svg width="611" height="165" viewBox="0 0 611 165" fill="none" xmlns="http://www.w3.org/2000/svg">
<g clip-path="url(#clip0_48_59)">
<path d="M329.531 1C341.005 18.2977 352.01 35.5955 363.342 53.4078C369.785 43.2633 375.865 33.6184 382.063 24.0501C382.662 23.1247 383.984 22.1131 384.99 22.0928C392.911 21.9325 400.837 22.0038 410.274 22.0038C398.71 39.0064 387.854 54.9686 377.135 70.7287C398.04 102.072 418.849 133.271 440.01 164.998C431.318 164.998 423.224 165.065 415.133 164.915C414.091 164.896 412.698 164.003 412.091 163.097C395.812 138.797 379.615 114.443 362.924 89.377C359.241 94.5484 355.639 99.4165 352.254 104.431C350.274 107.363 348.618 110.516 346.854 113.591C343.848 118.83 340.24 122.24 333.293 121.171C327.776 120.321 322.023 120.999 315.388 120.999C320.214 113.742 324.586 107.056 329.074 100.447C334.901 91.8647 340.702 83.2593 346.777 74.8529C348.433 72.561 348.763 70.8784 347.203 68.5451C339.392 56.859 331.637 45.1357 323.909 33.3943C316.968 22.8474 310.088 12.26 303.09 1.34525C311.688 1 320.375 1 329.531 1Z" fill="#C80733"/>
<path d="M1 22.4686C6.48821 21.9999 12.0284 21.5557 17.4424 22.1898C20.0955 22.5005 23.2682 24.2199 24.9188 26.3154C37.4652 42.2437 49.6929 58.4229 62.0207 74.5234C63.3633 76.2768 64.7104 78.0267 66.88 80.852C66.88 60.509 66.88 41.5235 66.88 22.0182C74.2425 22.0182 81.1677 22.0182 88.6491 22.2689C89.3697 22.7419 89.5836 22.8961 89.8466 22.9819C89.8964 55.0189 89.9462 87.0558 89.7417 119.646C89.266 120.363 89.1105 120.574 89.0207 120.833C86.8637 120.889 84.7068 120.99 82.5498 120.992C68.0249 121.007 68.3725 120.744 59.9021 109.238C48.3633 93.5627 36.2307 78.3249 24.3381 62.911C24.1752 62.6999 23.8222 62.6356 23.1183 62.2817C23.1183 81.8249 23.1183 101.136 23.1183 121C15.7773 121 8.85727 121 1.46861 121C1 88.3124 1 55.6248 1 22.4686Z" fill="#C80733"/>
<path d="M612 120.532C584.865 121 557.729 121 530.655 121C528.185 109.722 530.871 100.734 538.899 92.2579C550.71 79.7887 561.307 66.1705 572.454 53.0692C575.165 49.8827 578.002 46.8035 581.34 43.046C564.136 43.046 547.883 43.046 531.315 43.046C531.315 36.0465 531.315 29.3149 531.315 22C557.874 22 584.468 22 611.531 22.0002C612 27.6883 612 33.3764 611.665 39.6346C605.36 47.5046 599.492 54.892 593.392 62.0831C584.935 72.0534 576.282 81.8567 567.763 91.7749C565.394 94.5327 563.204 97.4438 560.359 101C578.225 101 595.113 101 612 101C612 107.355 612 113.709 612 120.532Z" fill="#C80733"/>
<path d="M216.333 166C212.888 164.968 209.618 164.241 206.746 162.749C205.67 162.189 204.855 159.741 205.081 158.342C205.591 155.201 207.627 156.024 209.929 156.891C212.754 157.956 215.817 158.567 218.826 158.859C219.796 158.953 221.626 157.541 221.792 156.595C221.978 155.536 221.013 153.598 220.038 153.146C217.738 152.08 215.149 151.612 212.652 151.008C207.511 149.765 204.508 145.524 205.001 140.087C205.405 135.624 209.528 131.831 214.454 132.093C218.121 132.287 221.844 133.02 225.329 134.162C226.509 134.549 227.038 136.923 227.864 138.389C226.137 139.02 224.387 140.2 222.688 140.132C220.872 140.06 219.067 138.161 217.322 138.255C215.525 138.352 213.806 139.891 212.053 140.799C213.145 141.872 214.095 143.176 215.365 143.957C216.85 144.87 218.568 145.503 220.266 145.953C230.389 148.641 229.387 150.774 228.816 158.859C228.399 164.78 222.941 164.927 218.151 165.627C217.556 166 217.111 166 216.333 166Z" fill="#C70732"/>
<path d="M1 133.469C3.14281 133 5.28561 133 7.80954 133C7.52894 137.048 7.05161 140.871 7.06611 144.692C7.07775 147.761 7.20749 150.985 8.15318 153.854C9.25802 157.206 11.6825 159.487 15.8408 159.04C20.4652 158.543 21.6242 155.049 21.8787 151.585C22.3144 145.651 21.999 139.662 21.999 133.349C24.2412 133.349 26.299 133.349 28.964 133.349C28.964 140.735 29.6859 148.407 28.7151 155.858C28.0466 160.988 23.5982 164.183 18.1292 165.655C16.2856 166 14.5713 166 12.2972 165.647C6.29031 164.947 3.49172 161.172 1 157C1 149.312 1 141.625 1 133.469Z" fill="#C70732"/>
<path d="M479.229 21.6416C491.512 23.6468 500.604 30.5479 508.341 39.0099C520.482 52.288 521.375 68.7023 517.827 85.0617C513.514 104.951 500.046 117.378 480.524 121.764C461.549 126.027 443.163 123.554 428.709 108.972C419.838 100.023 414.774 88.8985 413.921 75.9277C412.758 58.2676 419.055 43.9417 432.128 32.4052C439.771 25.6595 448.893 21.8907 458.967 21.1183C465.562 20.6128 472.244 21.2457 479.229 21.6416ZM472.814 42.3228C461.285 40.5666 451.344 43.5758 444.086 52.9199C435.344 64.174 435.464 84.0771 448.125 94.9602C456.911 102.513 471.259 104.425 481.165 98.2437C494.813 89.7267 499.969 73.0681 492.193 57.8431C488.346 50.3105 482.519 44.3532 472.814 42.3228Z" fill="#C80733"/>
<path d="M221.999 22.1681C239.146 22.1122 256.302 21.6826 273.438 22.1108C288.981 22.4993 301.408 32.0652 304.519 47.3001C307.348 61.1516 303.613 79.4895 286.015 85.5307C285.74 85.6251 285.564 86.0079 284.896 86.7551C292.472 97.894 300.143 109.173 308.186 121C299.134 121 290.854 121.154 282.591 120.857C281.127 120.804 279.308 119.16 278.374 117.767C273.439 110.414 268.51 103.036 264.038 95.3994C261.511 91.0852 257.99 89.8862 253.479 89.9893C250.843 90.0495 248.204 90.0003 245.116 90.0003C245.116 100.344 245.116 110.41 245.116 120.804C236.909 120.804 229.147 120.804 221.536 120.069C221.791 117.52 221.986 115.707 221.987 113.893C222.005 83.3182 221.999 52.7432 221.999 22.1681ZM263.364 43.0008C257.281 43.0008 251.199 43.0008 245.386 43.0008C245.386 52.4596 245.386 61.1888 245.386 69.9981C252.765 69.9981 259.759 70.0584 266.75 69.9521C268.327 69.9281 269.904 69.3589 271.466 68.9807C279.939 66.9298 284.119 58.3603 280.931 51.3215C277.719 44.2284 271.256 42.9927 263.364 43.0008Z" fill="#C80733"/>
<path d="M161.691 20.9992C164.945 20.6653 166.179 21.5922 167.413 24.5517C177.465 48.6623 187.936 72.5981 198.195 96.6231C201.589 104.569 204.735 112.62 208.148 121C200.698 121 194.04 120.895 187.387 121.05C184.628 121.114 183.548 120.205 182.617 117.463C180.609 111.556 177.857 105.902 175.349 100C162.85 100 150.37 99.9066 137.897 100.137C136.567 100.162 134.712 101.811 134.059 103.168C131.28 108.943 128.862 114.892 126.266 120.884C118.73 120.884 111.092 120.884 102.688 120.884C105.225 114.653 107.551 108.75 110.02 102.907C119.37 80.7861 128.762 58.6831 138.147 36.5768C140.103 31.9696 141.957 27.3094 144.179 22.8325C144.657 21.869 146.499 21.1394 147.748 21.0814C152.234 20.8733 156.735 20.9994 161.691 20.9992ZM161.943 65.7144C159.744 61.053 157.546 56.3917 155.006 51.0054C150.958 60.9415 147.394 69.6924 143.678 78.8125C151.682 78.8125 159.08 78.8125 166.816 78.8125C165.163 74.5878 163.581 70.5464 161.943 65.7144Z" fill="#C80733"/>
<path d="M67.9996 160.793C67.9424 162.406 67.8853 163.547 67.8331 164.588C60.5825 167.065 59.294 160.383 56.1088 157.101C52.6509 153.539 49.9359 149.255 46.1589 144.322C46.1589 151.798 46.1589 158.138 46.1589 164.731C43.6199 164.731 41.5589 164.731 39.2396 164.731C39.2396 154.266 39.2396 143.86 39.2396 133.425C45.9209 131.125 48.805 136.015 52.0065 140.056C54.7826 143.56 57.323 147.251 60.9609 150.485C60.9609 144.788 60.9609 139.091 60.9609 133.208C63.3773 133.208 65.3259 133.208 67.9997 133.208C67.9997 142.166 67.9997 151.243 67.9996 160.793Z" fill="#C80732"/>
<path d="M170 147.005C170 142.207 170 137.907 170 133.014C176.663 133.014 183.106 132.67 189.493 133.118C195.055 133.508 196.382 138.59 196.705 142.721C197.027 146.842 195.429 151.143 189.456 152.397C192.304 156.571 194.907 160.386 197.481 164.159C189.689 167.553 186.837 162.299 184.444 157.609C182.756 154.3 180.861 153.388 177.54 154.237C174.961 157.498 181.303 166.803 170 164.711C170 159.053 170 153.278 170 147.005ZM184.05 147.997C187.646 147.484 190.443 145.465 188.773 141.879C186.225 136.408 181.115 140.03 177.363 138.913C177.363 142.48 177.363 145.196 177.363 148C179.537 148 181.347 148 184.05 147.997Z" fill="#C80732"/>
<path d="M145.026 133.001C150.152 133.001 154.785 133.001 159.706 133.001C159.706 134.997 159.706 136.726 159.706 138.903C153.998 138.903 148.253 138.903 142.259 138.903C142.259 141.06 142.259 142.786 142.259 144.922C147.408 144.922 152.494 144.922 157.782 144.922C157.782 147.39 157.782 149.456 157.782 151.954C152.61 151.954 147.528 151.954 142.232 151.954C142.232 154.107 142.232 155.834 142.232 158C146.169 158 149.957 157.984 153.744 158.004C160.039 158.036 160.134 158.146 159.824 164.717C151.768 164.717 143.693 164.717 135.307 164.717C135.307 154.37 135.307 143.988 135.307 133.001C138.335 133.001 141.433 133.001 145.026 133.001Z" fill="#C80733"/>
<path d="M290.978 133.165C298.778 133.165 306.578 133.165 314.776 133.165C314.86 134.961 314.941 136.692 315.043 138.877C309.371 138.877 303.954 138.877 298.274 138.877C298.274 141.035 298.274 142.762 298.274 144.929C303.055 144.929 307.81 144.929 312.772 144.929C312.772 147.424 312.772 149.488 312.772 151.99C307.895 151.99 303.14 151.99 298.204 151.99C298.204 154.037 298.204 155.653 298.204 157.986C301.685 157.986 305.27 157.897 308.846 158.027C310.428 158.085 312.224 158.216 313.497 159.003C314.632 159.704 315.911 161.451 315.764 162.555C315.638 163.502 313.606 164.849 312.38 164.888C305.562 165.109 298.733 164.985 291.45 164.449C290.987 153.667 290.983 143.416 290.978 133.165Z" fill="#C70632"/>
<path d="M111.037 164.999C109.187 164.269 106.971 163.887 106.476 162.754C102.471 153.591 98.782 144.291 95.0368 135.016C94.8704 134.604 95.094 134.035 95.1585 133.271C97.5811 133.271 100.003 133.271 102.394 133.271C105.103 140.045 107.822 146.843 110.938 154.636C113.148 148.888 115.468 143.937 116.932 138.744C118.457 133.337 121.46 131.689 126.944 133.5C122.967 143.606 118.999 153.841 114.815 163.986C114.534 164.668 112.622 164.677 111.037 164.999Z" fill="#C80732"/>
<path d="M265.001 158.895C265.001 152.109 265.001 145.81 265.001 139.072C261.595 139.072 258.508 139.072 255.224 139.072C255.224 136.896 255.224 135.164 255.224 133.232C264.15 133.232 272.895 133.232 281.819 133.232C281.819 135.085 281.819 136.708 281.819 138.77C278.81 138.77 275.725 138.77 272.182 138.77C272.182 147.598 272.182 156.009 272.182 164.705C269.673 164.705 267.61 164.705 265.001 164.705C265.001 162.939 265.001 161.16 265.001 158.895Z" fill="#C80733"/>
<path d="M342.889 133C345.019 133 346.664 133 348.756 133C348.855 134.9 348.945 136.627 349.058 138.791C345.78 138.791 342.705 138.791 339.204 138.791C339.204 147.578 339.204 155.96 339.204 164.667C336.733 164.667 334.677 164.667 332.197 164.667C332.197 156.431 332.197 148.043 332.197 140.034C328.941 137.029 320.73 142.868 322.21 133C328.883 133 335.644 133 342.889 133Z" fill="#C80733"/>
<path d="M365 141.06C365 149.167 365 156.784 365 164.699C362.681 164.699 360.628 164.699 358.28 164.699C358.28 154.36 358.28 143.98 358.28 133.299C360.319 133.299 362.376 133.299 365 133.299C365 135.697 365 138.133 365 141.06Z" fill="#C80733"/>
<path d="M86.0001 139.106C86.0001 147.871 86.0001 156.15 86.0001 164.713C83.6571 164.713 81.599 164.713 79.2671 164.713C79.2671 154.33 79.2671 143.949 79.2671 133.283C81.3509 133.283 83.4087 133.283 86.0001 133.283C86.0001 135.07 86.0001 136.845 86.0001 139.106Z" fill="#C80733"/>
<path d="M246 140.079C246 148.518 246 156.465 246 164.705C243.668 164.705 241.611 164.705 239.274 164.705C239.274 154.348 239.274 143.968 239.274 133.293C241.338 133.293 243.395 133.293 246 133.293C246 135.379 246 137.483 246 140.079Z" fill="#C80733"/>
<path d="M221.586 22.2979C221.999 52.7428 222.005 83.3179 221.987 113.893C221.986 115.707 221.791 117.52 221.422 119.648C221.162 87.4512 221.167 54.9395 221.586 22.2979Z" fill="#B70126"/>
<path d="M240.25 125.051C242.664 125.011 244.615 125.011 246.781 125.011C246.781 127.1 246.781 128.829 246.781 130.779C244.231 130.779 241.832 130.779 238.737 130.779C239.121 128.703 239.454 126.897 240.25 125.051Z" fill="#C70633"/>
<path d="M79.0063 127.09C81.0318 125.88 83.0524 125.127 85.742 124.124C85.8688 126.889 85.9482 128.62 86.0576 131.004C83.371 129.849 78.9558 134.096 79.0063 127.09Z" fill="#C80733"/>
<path d="M290.565 133.296C290.983 143.417 290.987 153.668 290.985 164.377C290.653 164.219 290.046 163.603 290.045 162.987C290.035 153.133 290.102 143.28 290.565 133.296Z" fill="#9A0101"/>
<path d="M89.2794 120.872C89.1104 120.574 89.266 120.363 89.6652 120.111C89.7415 120.318 89.6398 120.614 89.2794 120.872Z" fill="#C5012A"/>
<path d="M89.8811 22.7211C89.5836 22.8959 89.3698 22.7418 89.1143 22.3409C89.3207 22.2618 89.6181 22.361 89.8811 22.7211Z" fill="#C5012A"/>
</g>
<defs>
<clipPath id="clip0_48_59">
<rect width="611" height="165" fill="white"/>
</clipPath>
</defs>
</svg>
